<?xml version="1.0" standalone="no"?><!DOCTYPE svg PUBLIC "-//W3C//DTD SVG 1.1//EN" "http://www.w3.org/Graphics/SVG/1.1/DTD/svg11.dtd"><svg t="1634910486552" class="icon" viewBox="0 0 1412 1024" version="1.1" xmlns="http://www.w3.org/2000/svg" p-id="6005" xmlns:xlink="http://www.w3.org/1999/xlink" width="275.78125" height="200"><defs><style type="text/css"></style></defs><path d="M928.389446 713.206865c-66.999543 0-121.323019-58.613566-121.323019-130.89186 0-72.278294 54.323476-130.89186 121.323019-130.89186s121.323019 58.613566 121.323019 130.89186c0 72.295949-54.323476 130.89186-121.323019 130.89186z m-444.403817 0c-66.999543 0-121.323019-58.613566-121.323019-130.89186 0-72.278294 54.323476-130.89186 121.323019-130.89186s121.323019 58.613566 121.323019 130.89186c0 72.295949-54.323476 130.89186-121.323019 130.89186z m888.825289-216.128696c-42.194705-200.451332-134.369834-370.04227-134.369834-370.042269-176.546884-132.198307-341.794768-126.972519-341.794768-126.97252l-10.416266 17.389868c193.054018 45.213657 314.377037 156.102755 314.377037 156.102756C1042.774172 83.552402 827.951923 52.232985 706.187537 52.232985c-121.764386 0-336.56898 31.319417-494.419549 121.323019 0 0 121.323019-110.871443 314.394691-156.102756l-10.433921-17.389868s-165.247884-5.225788-341.794768 126.97252c0 0-92.175128 169.590937-134.352179 370.042269C3.054261 670.588447 0 827.997649 0 827.997649s63.062547 89.156177 155.679043 133.063387c89.032594 42.230015 155.679043 49.574365 212.209355 50.439445l82.623941-99.131076s-138.289174-40.888258-211.344275-140.036989c0 0 195.684567 135.676281 467.019473 135.676281 271.352561 0 467.019473-135.676281 467.019473-135.676281-73.055101 99.14873-211.326621 140.036989-211.32662 140.036989l82.623942 99.131076c56.512658-0.86508 123.159107-8.20943 212.209355-50.439445C1349.312527 917.136171 1412.375075 827.997649 1412.375075 827.997649s-3.054261-157.409202-39.564157-330.91948z" p-id="6006" fill="#ffffff"></path></svg>