<?xml version="1.0" standalone="no"?><!DOCTYPE svg PUBLIC "-//W3C//DTD SVG 1.1//EN" "http://www.w3.org/Graphics/SVG/1.1/DTD/svg11.dtd"><svg t="1634910148932" class="icon" viewBox="0 0 1024 1024" version="1.1" xmlns="http://www.w3.org/2000/svg" p-id="6083" xmlns:xlink="http://www.w3.org/1999/xlink" width="200" height="200"><defs><style type="text/css"></style></defs><path d="M672 192c42.4 0 82.6 16.8 113 47S832 309.6 832 352v320c0 42.4-16.8 82.6-47 113S714.4 832 672 832H352c-42.4 0-82.6-16.8-113-47S192 714.4 192 672V352c0-42.4 16.8-82.6 47-113S309.6 192 352 192h320m0-64H352c-123.2 0-224 100.8-224 224v320c0 123.2 100.8 224 224 224h320c123.2 0 224-100.8 224-224V352c0-123.2-100.8-224-224-224z" p-id="6084" fill="#ffffff"></path><path d="M720 352c-26.6 0-48-21.4-48-48s21.4-48 48-48c26.4 0 48 21.4 48 48s-21.6 48-48 48z m-208 32c70.6 0 128 57.4 128 128s-57.4 128-128 128-128-57.4-128-128 57.4-128 128-128m0-64c-106 0-192 86-192 192s86 192 192 192 192-86 192-192-86-192-192-192z" p-id="6085" fill="#ffffff"></path></svg>